<<svg xmlns="http://www.w3.org/2000/svg" viewBox="0 0 512 512">
  <path fill="#1E40AF" d="M256 0C114.6 0 0 114.6 0 256s114.6 256 256 256s256-114.6 256-256S397.4 0 256 0z"/>
  <path fill="#FFFFFF" d="M256 64c-100.1 0-178 83.1-178 192c0 4.4 .7 8.6 1.2 12.9L172 224c9.4-9.4 24.6-9.4 33.9 0l63 63.1l-16 16c-9.4 9.4-9.4 24.6 0 33.9l63 63c9.4 9.4 24.6 9.4 33.9 0l16-16c3.1-3.1 5.4-6.8 6.8-10.9C419.5 290.6 450 273.4 450 256C450 147.1 356.1 64 256 64zM171.2 320.3C184.9 324.6 214.5 352 256 352c41.5 0 71.1-27.4 84.8-31.7c0 0-7.5 27.6-21.2 46.8c-16.8 23.5-46.8 30.9-63.6 30.9s-46.7-7.4-63.6-30.9C179.7 347.9 171.2 320.3 171.2 320.3z"/>
</svg>